<?xml version="1.0" encoding="UTF-8" standalone="no"?>
<!-- Created with Inkscape (http://www.inkscape.org/) -->
<svg id="svg4312" xmlns:rdf="http://www.w3.org/1999/02/22-rdf-syntax-ns#" xmlns="http://www.w3.org/2000/svg" viewBox="0 0 516.3 777.29" version="1.1" xmlns:cc="http://creativecommons.org/ns#" xmlns:xlink="http://www.w3.org/1999/xlink" xmlns:dc="http://purl.org/dc/elements/1.1/">
 <title id="title5291">Stycil Tux</title>
 <defs id="defs4314">
  <linearGradient id="linearGradient4970" y2="497.71" gradientUnits="userSpaceOnUse" y1="230" gradientTransform="matrix(2.8137 0 0 2.8137 -142.8 -633.7)" x2="140" x1="140">
   <stop id="stop3912-5-9-3-8-7-4" offset="0"/>
   <stop id="stop3914-0-1-3-0-6-9" stop-color="#4c4c4c" offset="1"/>
  </linearGradient>
  <linearGradient id="linearGradient5004" y2="497.71" gradientUnits="userSpaceOnUse" y1="230" gradientTransform="matrix(2.8137 0 0 2.8137 -131.43 -633.7)" x2="140" x1="140">
   <stop id="stop3912-5-9-3-8-5" stop-color="#fff" offset="0"/>
   <stop id="stop3914-0-1-3-0-64" stop-color="#a6a6a6" offset="1"/>
  </linearGradient>
  <linearGradient id="linearGradient4598-6" y2="518.87" gradientUnits="userSpaceOnUse" y1="383.11" gradientTransform="matrix(2.8137 0 0 -2.8137 -131.43 2188.3)" x2="140" x1="140">
   <stop id="stop4619-9" stop-color="#fff" stop-opacity="0" offset="0"/>
   <stop id="stop4621-5" stop-color="#a6a6a6" stop-opacity=".5" offset="1"/>
  </linearGradient>
  <radialGradient id="radialGradient4581-2" gradientUnits="userSpaceOnUse" cy="68.784" cx="369.02" gradientTransform="matrix(1 0 0 .33333 0 843.75)" r="1173.4">
   <stop id="stop4577-3" stop-color="#fff" offset="0"/>
   <stop id="stop4579-1" stop-color="#fff" stop-opacity="0" offset="1"/>
  </radialGradient>
  <clipPath id="clipPath4719-2" clipPathUnits="userSpaceOnUse">
   <rect id="rect4721-4" style="color:#000000" height="1135.8" width="1352.3" y="-358.5" x="-490.56"/>
  </clipPath>
  <filter id="filter4731-8" style="color-interpolation-filters:sRGB">
   <feGaussianBlur id="feGaussianBlur4733-7" stdDeviation="16.169858"/>
  </filter>
  <linearGradient id="linearGradient4801" y2="-367.2" gradientUnits="userSpaceOnUse" y1="932.23" gradientTransform="translate(329.25 112.5)" x2="328.36" x1="328.36">
   <stop id="stop4567-1" stop-color="#939393" offset="0"/>
   <stop id="stop4569-9" offset="1"/>
  </linearGradient>
 </defs>
 <metadata id="metadata4317">
  <rdf:RDF>
   <cc:Work rdf:about="">
    <dc:format>image/svg+xml</dc:format>
    <dc:type rdf:resource="http://purl.org/dc/dcmitype/StillImage"/>
    <dc:title>Stycil Tux</dc:title>
    <dc:creator>
     <cc:Agent>
      <dc:title>Cheeseness (Josh Bush)</dc:title>
     </cc:Agent>
    </dc:creator>
    <dc:subject>
     <rdf:Bag>
      <rdf:li>tux linux icon</rdf:li>
     </rdf:Bag>
    </dc:subject>
    <dc:description>A stylised stencil (a &quot;stycil&quot; - isn&apos;t that catchy) inspired by Larry Ewing&apos;s Tux illustration.
http://en.wikipedia.org/wiki/Tux
You&apos;re under no obligation to do so, but if you do something with this, drop me a line - I&apos;d love to hear about it.
cheese@twolofbees.com</dc:description>
    <dc:date>2012-01-02</dc:date>
    <cc:license rdf:resource="http://creativecommons.org/publicdomain/zero/1.0/"/>
    <dc:source>http://twolofbees.com/uploads/2012/stycil_tux.svg</dc:source>
    <dc:relation>http://twolofbees.com/artwork.php?iid=870</dc:relation>
   </cc:Work>
   <cc:License rdf:about="http://creativecommons.org/publicdomain/zero/1.0/">
    <cc:permits rdf:resource="http://creativecommons.org/ns#Reproduction"/>
    <cc:permits rdf:resource="http://creativecommons.org/ns#Distribution"/>
    <cc:permits rdf:resource="http://creativecommons.org/ns#DerivativeWorks"/>
   </cc:License>
  </rdf:RDF>
 </metadata>
 <g id="layer1" transform="translate(.0000037110 .0000016797)" display="none">
  <rect id="rect3795" style="color:#000000" height="1314" width="2079" display="inline" y="-255.11" x="-781.35" fill="url(#linearGradient4801)"/>
  <ellipse id="path4573" opacity=".5" style="color:#000000" rx="1173.4" transform="translate(-106.45 -243.07)" ry="391.12" cy="1265.6" cx="369.02" display="inline" fill="url(#radialGradient4581-2)"/>
  <path id="path4372-6" style="color:#000000" d="m258.11 1554.6c-75.983 0-120.59-46.353-128.99-108.86-8.4009-62.502 5.1251-73.956-15.915-137.96-21.048-64-115.38-173.8-113.17-275 0.68683-31.517 4.3162-58.806 10.639-82.653 7.7523 12.845 19.238 21.897 27.609 25.763 6.5351 3.0168 9.6938 4.4676 11.167 5.0118 0.21384 1.6192 1.0422 5.3058 2.5498 12.574 2.0709 9.9819 10.008 25.611 23.565 35.875-0.13787 3.1094-0.28756 6.1868-0.35171 9.4082-1.5658 78.518 79.586 163.58 94.523 213.23 14.937 49.642 8.4392 54.755 10.903 67.089 2.4637 12.334 11.976 26.702 25.675 38.161 1.305 1.0923 2.5751 1.5706 3.8689 1.5827 12.489 0.1182 24.987-45.348 49.152-45.371 24.165-0.028 36.736 55.425 50.647 43.788 13.699-11.459 23.211-25.826 25.675-38.161 2.464-12.334-4.0343-17.447 10.903-67.089 14.937-49.644 96.001-134.71 94.435-213.23-0.065-3.1913-0.2167-6.2386-0.3518-9.3204 13.617-10.262 21.577-25.956 23.653-35.963 1.5076-7.2681 2.3362-10.955 2.5501-12.574 1.4687-0.5434 4.6406-2.0782 11.167-5.0999 8.3739-3.8773 19.791-12.913 27.522-25.763 6.3402 23.871 10.04 51.178 10.727 82.741 2.2057 101.23-92.212 210.95-113.25 274.95-21.04 64.004-7.4262 75.457-15.827 137.96-8.4009 62.502-53.096 108.86-129.08 108.86zm-149.3-541.81c-3.2625-0.1885-6.8677-1.0664-10.903-2.7256-25.826-10.622-14.481-32.999-25.763-47.13-11.282-14.132-33.934-7.3249-41.062-36.226-7.1277-28.902 102.44-170.8 161.35-146.58 58.91 24.228 37.006 202.19 11.606 217.71-25.398 15.525-36.644-5.2709-54.603-3.1654-15.153 1.7766-23.005 19.132-40.623 18.113zm296.76 0c-16.296-0.2814-24.184-16.403-38.776-18.113-17.96-2.1055-29.205 18.69-54.603 3.1654-25.399-15.525-47.304-193.48 11.606-217.71 58.91-24.228 168.48 117.67 161.35 146.58-7.128 28.902-29.693 22.095-40.975 36.226s0.065 36.508-25.763 47.13c-4.8426 1.991-9.077 2.7903-12.838 2.7256zm-150.63-174.05c-1.2872-8.3167-3.0154-16.478-5.2757-24.356-3.684-12.84-9.0609-25.708-17.058-36.666 8.2881-0.5138 16.783-0.5813 25.499-0.1745 8.7163-0.406 17.208-0.3382 25.499 0.1745-7.9972 10.958-13.374 23.826-17.058 36.666-2.2603 7.8781-3.9885 16.04-5.2757 24.356-1.0549-0.028-2.1007-0.087-3.1654-0.087-1.0648 0-2.1106 0.068-3.1655 0.087z" display="inline" fill="url(#linearGradient4598-6)"/>
  <path id="path4372-0" style="color:#000000" d="m258.11-0.0000016797c-75.99 0-120.59 46.353-128.99 108.86-8.4 62.5 5.12 73.95-15.92 137.95-21.038 64.01-115.37 173.73-113.16 274.96 0.68683 31.517 4.3162 58.806 10.639 82.653 7.7523-12.845 19.238-21.897 27.609-25.763 6.5351-3.0169 9.6938-4.4676 11.167-5.0118 0.21384-1.6193 1.0422-5.3058 2.5498-12.574 2.0709-9.9819 10.008-25.611 23.565-35.875-0.13787-3.1094-0.28756-6.1868-0.35171-9.4082-1.5658-78.518 79.586-163.58 94.523-213.23 14.937-49.642 8.4391-54.755 10.903-67.089 2.4637-12.334 11.976-26.702 25.675-38.161 1.305-1.0923 2.5751-1.5706 3.8688-1.5827 12.489-0.11817 24.987 45.348 49.152 45.371 24.165 0.0281 36.736-55.425 50.647-43.788 13.699 11.459 23.211 25.826 25.675 38.161 2.464 12.334-4.0343 17.447 10.903 67.089 14.937 49.644 96.001 134.71 94.435 213.23-0.0647 3.1913-0.21666 6.2386-0.35172 9.3204 13.617 10.262 21.577 25.956 23.653 35.963 1.5076 7.2681 2.3362 10.955 2.5501 12.574 1.4688 0.54332 4.6406 2.0782 11.167 5.0998 8.3739 3.8773 19.791 12.913 27.522 25.763 6.3401-23.871 10.04-51.178 10.727-82.741 2.2-101.23-92.22-210.95-113.26-274.96-21.04-64-7.42-75.45-15.82-137.95-8.4-62.507-53.1-108.86-129.08-108.86zm-149.3 541.81c-3.2625 0.18852-6.8677 1.0664-10.903 2.7256-25.826 10.622-14.481 32.999-25.763 47.13-11.282 14.132-33.934 7.3249-41.062 36.226-7.1277 28.902 102.44 170.8 161.35 146.58 58.911-24.228 37.006-202.19 11.607-217.71-25.398-15.525-36.643 5.2709-54.603 3.1654-15.153-1.7766-23.005-19.132-40.623-18.113zm296.76 0c-16.296 0.28137-24.184 16.402-38.776 18.113-17.96 2.1055-29.205-18.69-54.603-3.1654-25.399 15.525-47.304 193.48 11.607 217.71 58.91 24.228 168.48-117.67 161.35-146.58-7.128-28.902-29.693-22.095-40.975-36.226s0.0647-36.508-25.763-47.13c-4.8427-1.991-9.077-2.7904-12.838-2.7256zm-150.63 174.01c-1.2873 8.3168-3.0154 16.478-5.2757 24.356-3.684 12.84-9.061 25.708-17.058 36.666 8.2881 0.51378 16.783 0.58131 25.499 0.17445 8.7163 0.40601 17.208 0.3382 25.499-0.17445-7.9971-10.959-13.374-23.826-17.058-36.666-2.2602-7.8781-3.9884-16.04-5.2757-24.356-1.0549 0.0281-2.1007 0.0872-3.1654 0.0872s-2.1106-0.0675-3.1654-0.0872z" clip-path="url(#clipPath4719-2)" transform="translate(4.375e-6,3.8320313e-5)" filter="url(#filter4731-8)" display="inline"/>
 </g>
 <g id="layer2" transform="translate(.0000037110 .0000016797)" display="none">
  <path id="path4372-4" style="color:#000000" d="m258.11-0.0000016797c-75.99 0-120.59 46.353-128.99 108.86-8.4 62.5 5.12 73.95-15.92 137.95-21.038 64.01-115.37 173.73-113.16 274.96 0.68683 31.517 4.3162 58.806 10.639 82.653 7.7523-12.845 19.238-21.897 27.609-25.763 6.5351-3.0168 9.6938-4.4676 11.167-5.0118 0.21384-1.6193 1.0422-5.3058 2.5498-12.574 2.0709-9.9819 10.008-25.611 23.565-35.875-0.13787-3.1094-0.28756-6.1868-0.35171-9.4082-1.5658-78.518 79.586-163.58 94.523-213.23 14.937-49.642 8.4391-54.755 10.903-67.089 2.4637-12.334 11.976-26.702 25.675-38.161 1.305-1.0923 2.5751-1.5706 3.8688-1.5827 12.489-0.11817 24.987 45.348 49.152 45.371 24.165 0.0281 36.736-55.425 50.647-43.788 13.699 11.459 23.211 25.826 25.675 38.161 2.464 12.334-4.0343 17.447 10.903 67.089 14.937 49.644 96.001 134.71 94.435 213.23-0.0647 3.1913-0.21666 6.2386-0.35172 9.3204 13.617 10.262 21.577 25.956 23.653 35.963 1.5076 7.2681 2.3362 10.955 2.5501 12.574 1.4688 0.54332 4.6406 2.0782 11.167 5.0998 8.3739 3.8773 19.791 12.913 27.522 25.763 6.3401-23.871 10.04-51.178 10.727-82.741 2.2-101.23-92.22-210.95-113.26-274.96-21.04-64-7.42-75.45-15.82-137.95-8.4-62.507-53.1-108.86-129.08-108.86zm-149.3 541.81c-3.2625 0.18851-6.8677 1.0664-10.903 2.7256-25.826 10.622-14.481 32.999-25.763 47.13-11.282 14.132-33.934 7.3249-41.062 36.226-7.1277 28.902 102.44 170.8 161.35 146.58 58.911-24.228 37.006-202.19 11.607-217.71-25.398-15.525-36.643 5.2709-54.603 3.1654-15.153-1.7766-23.005-19.132-40.623-18.113zm296.76 0c-16.296 0.28137-24.184 16.402-38.776 18.113-17.96 2.1055-29.205-18.69-54.603-3.1654-25.399 15.525-47.304 193.48 11.607 217.71 58.91 24.228 168.48-117.67 161.35-146.58-7.128-28.902-29.693-22.095-40.975-36.226s0.0647-36.508-25.763-47.13c-4.8427-1.991-9.077-2.7904-12.838-2.7256zm-150.62 174.01c-1.2873 8.3168-3.0154 16.478-5.2757 24.356-3.684 12.84-9.061 25.708-17.058 36.666 8.2881 0.51378 16.783 0.58131 25.499 0.17445 8.7163 0.40602 17.208 0.33821 25.499-0.17445-7.9971-10.959-13.374-23.826-17.058-36.666-2.2602-7.8781-3.9884-16.04-5.2757-24.356-1.0549 0.0281-2.1007 0.0872-3.1654 0.0872s-2.1106-0.0675-3.1654-0.0872z" display="inline"/>
 </g>
 <g id="layer3" transform="translate(.0000037110 .0000016797)" display="none">
  <path id="path4372-7-7" style="color:#000000" d="m258.11-0.0000016797c-75.99 0-120.59 46.353-128.99 108.86-8.4 62.5 5.12 73.95-15.92 137.95-21.038 64.01-115.37 173.73-113.16 274.96 0.68683 31.517 4.3162 58.806 10.639 82.653 7.7523-12.845 19.238-21.897 27.609-25.763 6.5351-3.0168 9.6938-4.4676 11.167-5.0118 0.21384-1.6193 1.0422-5.3058 2.5498-12.574 2.0709-9.9819 10.008-25.611 23.565-35.875-0.13787-3.1094-0.28756-6.1868-0.35171-9.4082-1.5658-78.518 79.586-163.58 94.523-213.23 14.937-49.642 8.4391-54.755 10.903-67.089 2.4637-12.334 11.976-26.702 25.675-38.161 1.305-1.0923 2.5751-1.5706 3.8688-1.5827 12.489-0.11817 24.987 45.348 49.152 45.371 24.165 0.0281 36.736-55.425 50.647-43.788 13.699 11.459 23.211 25.826 25.675 38.161 2.464 12.334-4.0343 17.447 10.903 67.089 14.937 49.644 96.001 134.71 94.435 213.23-0.0647 3.1913-0.21666 6.2386-0.35172 9.3204 13.617 10.262 21.577 25.956 23.653 35.963 1.5076 7.2681 2.3362 10.955 2.5501 12.574 1.4688 0.54332 4.6406 2.0782 11.167 5.0998 8.3739 3.8773 19.791 12.913 27.522 25.763 6.3401-23.871 10.04-51.178 10.727-82.741 2.2-101.23-92.22-210.95-113.26-274.96-21.04-64-7.42-75.45-15.82-137.95-8.4-62.507-53.1-108.86-129.08-108.86zm-149.3 541.81c-3.2625 0.18851-6.8677 1.0664-10.903 2.7256-25.826 10.622-14.481 32.999-25.763 47.13-11.282 14.132-33.934 7.3249-41.062 36.226-7.1277 28.902 102.44 170.8 161.35 146.58 58.911-24.228 37.006-202.19 11.607-217.71-25.398-15.525-36.643 5.2709-54.603 3.1654-15.153-1.7766-23.005-19.132-40.623-18.113zm296.76 0c-16.296 0.28137-24.184 16.402-38.776 18.113-17.96 2.1055-29.205-18.69-54.603-3.1654-25.399 15.525-47.304 193.48 11.607 217.71 58.91 24.228 168.48-117.67 161.35-146.58-7.128-28.902-29.693-22.095-40.975-36.226s0.0647-36.508-25.763-47.13c-4.8427-1.991-9.077-2.7904-12.838-2.7256zm-150.62 174.01c-1.2873 8.3168-3.0154 16.478-5.2757 24.356-3.684 12.84-9.061 25.708-17.058 36.666 8.2881 0.51378 16.783 0.58131 25.499 0.17445 8.7163 0.40602 17.208 0.33821 25.499-0.17445-7.9971-10.959-13.374-23.826-17.058-36.666-2.2602-7.8781-3.9884-16.04-5.2757-24.356-1.0549 0.0281-2.1007 0.0872-3.1654 0.0872s-2.1106-0.0675-3.1654-0.0872z" display="inline" fill="#fff"/>
 </g>
 <g id="layer4" transform="translate(.0000037110 .0000016797)" display="none">
  <path id="path4372" style="color:#000000" d="m258.11-0.0000016797c-75.99 0-120.59 46.353-128.99 108.86-8.4 62.5 5.12 73.95-15.92 137.95-21.038 64.01-115.37 173.73-113.16 274.96 0.68683 31.517 4.3162 58.806 10.639 82.653 7.7523-12.845 19.238-21.897 27.609-25.763 6.5351-3.0169 9.6938-4.4676 11.167-5.0118 0.21384-1.6193 1.0422-5.3058 2.5498-12.574 2.0709-9.9819 10.008-25.611 23.565-35.875-0.13787-3.1094-0.28756-6.1868-0.35171-9.4082-1.5658-78.518 79.586-163.58 94.523-213.23 14.937-49.642 8.4391-54.755 10.903-67.089 2.4637-12.334 11.976-26.702 25.675-38.161 1.305-1.0923 2.5751-1.5706 3.8688-1.5827 12.489-0.11817 24.987 45.348 49.152 45.371 24.165 0.0281 36.736-55.425 50.647-43.788 13.699 11.459 23.211 25.826 25.675 38.161 2.464 12.334-4.0343 17.447 10.903 67.089 14.937 49.644 96.001 134.71 94.435 213.23-0.0647 3.1913-0.21666 6.2386-0.35172 9.3204 13.617 10.262 21.577 25.956 23.653 35.963 1.5076 7.2681 2.3362 10.955 2.5501 12.574 1.4688 0.54332 4.6406 2.0782 11.167 5.0998 8.3739 3.8773 19.791 12.913 27.522 25.763 6.3401-23.871 10.04-51.178 10.727-82.741 2.2-101.23-92.22-210.95-113.26-274.96-21.04-64-7.42-75.45-15.82-137.95-8.4-62.507-53.1-108.86-129.08-108.86zm-149.3 541.81c-3.2625 0.18852-6.8677 1.0664-10.903 2.7256-25.826 10.622-14.481 32.999-25.763 47.13-11.282 14.132-33.934 7.3249-41.062 36.226-7.1277 28.902 102.44 170.8 161.35 146.58 58.911-24.228 37.006-202.19 11.607-217.71-25.398-15.525-36.643 5.2709-54.603 3.1654-15.153-1.7766-23.005-19.132-40.623-18.113zm296.76 0c-16.296 0.28137-24.184 16.402-38.776 18.113-17.96 2.1055-29.205-18.69-54.603-3.1654-25.399 15.525-47.304 193.48 11.607 217.71 58.91 24.228 168.48-117.67 161.35-146.58-7.128-28.902-29.693-22.095-40.975-36.226s0.0647-36.508-25.763-47.13c-4.8427-1.991-9.077-2.7904-12.838-2.7256zm-150.63 174.01c-1.2873 8.3168-3.0154 16.478-5.2757 24.356-3.684 12.84-9.061 25.708-17.058 36.666 8.2881 0.51378 16.783 0.58131 25.499 0.17445 8.7163 0.40601 17.208 0.3382 25.499-0.17445-7.9971-10.959-13.374-23.826-17.058-36.666-2.2602-7.8781-3.9884-16.04-5.2757-24.356-1.0549 0.0281-2.1007 0.0872-3.1654 0.0872s-2.1106-0.0675-3.1654-0.0872z" display="inline" fill="url(#linearGradient5004)"/>
 </g>
 <g id="layer5" transform="translate(.0000037110 .0000016797)">
  <path id="path4372-7" style="color:#000000" d="m258.11-0.0000016797c-75.99 0-120.59 46.353-128.99 108.86-8.4 62.5 5.12 73.95-15.92 137.95-21.038 64.01-115.37 173.73-113.16 274.96 0.68683 31.517 4.3162 58.806 10.639 82.653 7.7523-12.845 19.238-21.897 27.609-25.763 6.5351-3.0169 9.6938-4.4676 11.167-5.0118 0.21384-1.6193 1.0422-5.3058 2.5498-12.574 2.0709-9.9819 10.008-25.611 23.565-35.875-0.13787-3.1094-0.28756-6.1868-0.35171-9.4082-1.5658-78.518 79.586-163.58 94.523-213.23 14.937-49.642 8.4391-54.755 10.903-67.089 2.4637-12.334 11.976-26.702 25.675-38.161 1.305-1.0923 2.5751-1.5706 3.8688-1.5827 12.489-0.11817 24.987 45.348 49.152 45.371 24.165 0.0281 36.736-55.425 50.647-43.788 13.699 11.459 23.211 25.826 25.675 38.161 2.464 12.334-4.0343 17.447 10.903 67.089 14.937 49.644 96.001 134.71 94.435 213.23-0.0647 3.1913-0.21666 6.2386-0.35172 9.3204 13.617 10.262 21.577 25.956 23.653 35.963 1.5076 7.2681 2.3362 10.955 2.5501 12.574 1.4688 0.54332 4.6406 2.0782 11.167 5.0998 8.3739 3.8773 19.791 12.913 27.522 25.763 6.3401-23.871 10.04-51.178 10.727-82.741 2.2-101.23-92.22-210.95-113.26-274.96-21.04-64-7.42-75.45-15.82-137.95-8.4-62.507-53.1-108.86-129.08-108.86zm-149.3 541.81c-3.2625 0.18852-6.8677 1.0664-10.903 2.7256-25.826 10.622-14.481 32.999-25.763 47.13-11.282 14.132-33.934 7.3249-41.062 36.226-7.1277 28.902 102.44 170.8 161.35 146.58 58.911-24.228 37.006-202.19 11.607-217.71-25.398-15.525-36.643 5.2709-54.603 3.1654-15.153-1.7766-23.005-19.132-40.623-18.113zm296.76 0c-16.296 0.28137-24.184 16.402-38.776 18.113-17.96 2.1055-29.205-18.69-54.603-3.1654-25.399 15.525-47.304 193.48 11.607 217.71 58.91 24.228 168.48-117.67 161.35-146.58-7.128-28.902-29.693-22.095-40.975-36.226s0.0647-36.508-25.763-47.13c-4.8427-1.991-9.077-2.7904-12.838-2.7256zm-150.63 174.01c-1.2873 8.3168-3.0154 16.478-5.2757 24.356-3.684 12.84-9.061 25.708-17.058 36.666 8.2881 0.51378 16.783 0.58131 25.499 0.17445 8.7163 0.40601 17.208 0.3382 25.499-0.17445-7.9971-10.959-13.374-23.826-17.058-36.666-2.2602-7.8781-3.9884-16.04-5.2757-24.356-1.0549 0.0281-2.1007 0.0872-3.1654 0.0872s-2.1106-0.0675-3.1654-0.0872z" fill="url(#linearGradient4970)"/>
 </g>
</svg>
